PathFileType	4	(X/Y/Z)	54_1_47_p1_0-442_filt_butterworth.trc
DataRate	CameraRate	NumFrames	NumMarkers	Units	OrigDataRate	OrigDataStartFrame	OrigNumFrames
44.0	44.0	5	27	m	44.0	165	442
Frame#	Time	RHip			RKnee			RAnkle			RBigToe			RSmallToe			RHeel			LHip			LKnee			LAnkle			LBigToe			LSmallToe			LHeel			Neck			Head			Nose			RShoulder			RElbow			RWrist			RThumb			RIndex			RPinky			LShoulder			LElbow			LWrist			LThumb			LIndex			LPinky			
		X1	Y1	Z1	X2	Y2	Z2	X3	Y3	Z3	X4	Y4	Z4	X5	Y5	Z5	X6	Y6	Z6	X7	Y7	Z7	X8	Y8	Z8	X9	Y9	Z9	X10	Y10	Z10	X11	Y11	Z11	X12	Y12	Z12	X13	Y13	Z13	X14	Y14	Z14	X15	Y15	Z15	X16	Y16	Z16	X17	Y17	Z17	X18	Y18	Z18	X19	Y19	Z19	X20	Y20	Z20	X21	Y21	Z21	X22	Y22	Z22	X23	Y23	Z23	X24	Y24	Z24	X25	Y25	Z25	X26	Y26	Z26	X27	Y27	Z27	
165	3.75	0.3011392058648588	0.46777761072857915	0.961017988707279	0.2884752293576232	0.5196979000217223	1.451697622303766	0.2882301464095218	0.5619361046874615	1.9084410666119975	0.21589853203671924	0.35455471147795764	1.9420476948419692	0.28382789349345794	0.38929022532588203	1.960402553279584	0.26679053079836634	0.6463583441794191	1.9998954783060894	0.07192402105795127	0.5185511019667459	0.9603018417174857	0.08097789229661845	0.5365773409393277	1.4468581711991773	0.06142043350351996	0.5638409079363446	1.8850334789871308	0.06826851474679044	0.3791309466317173	1.9461647474127637	0.01307409500578828	0.4264277426312738	1.9593022299870944	0.07703960081547606	0.6211407540929161	1.949873460300444	0.21631643239649426	0.508746499155351	0.42700891794517926	0.23537952205496776	0.39413999192824556	0.15907384903959182	0.22644656216180414	0.3616483957873527	0.311089877292106	0.37645049039043743	0.48427264485442	0.5061362481483531	0.40905613085451137	0.47507513614724	0.7907662020662622	0.38444988166568805	0.36983452532433125	1.0314402940016683	0.3007889626849647	0.3436886043727959	1.1547178904413151	0.3166928707811508	0.30349516204315075	1.155265302191995	0.3741358471046417	0.3725491174038392	1.178507225954389	0.045899684771795235	0.5421859397596017	0.4765839025927244	-0.033622016475096675	0.5699281210506701	0.756497653213309	-0.0776090289004507	0.46051997507496484	1.0051956911074829	-0.044434138057416424	0.3998644053831192	1.1081496434067242	-0.08701669172134441	0.423137712603747	1.1364363165921723	-0.10246364585762789	0.44040139312636806	1.139578430953788
166	3.772727272727273	0.30173488347499705	0.46884310186583084	0.9614242550600702	0.28845472628881463	0.5196412274843746	1.4516525838821759	0.28828331263883655	0.5618449606133125	1.9087183164412909	0.21746762623737143	0.35884022070006144	1.945017680993928	0.2838105746163122	0.3892296680922056	1.9602299625823025	0.2667200679729071	0.6462008378707303	1.9995808098427075	0.07188767361337287	0.5197038766018569	0.9623483226846969	0.08127736365756176	0.5361380319505404	1.4477209270269031	0.06145449777113675	0.5637744135406703	1.8851390184550592	0.06829703857941419	0.379161193292928	1.946247353515834	0.01298700152253966	0.42700713916481564	1.958272376475917	0.07688933584650412	0.6202598993578895	1.9464727422289692	0.2162834693587224	0.5088804781621284	0.4268801842688344	0.2355078903257466	0.39415960987033166	0.1590349362364923	0.2263242922996616	0.3613094629118748	0.31105037118170703	0.3763241770197985	0.48490320991688746	0.5062585006361604	0.4090749677731175	0.47535906498499825	0.7908215831374487	0.3844434419011086	0.36993089543014135	1.0325652531801484	0.300719051112322	0.34332046606169053	1.1546032479672506	0.3192848339562786	0.30268117913892534	1.154879123746699	0.374666504958031	0.3722551652177073	1.1768628288277594	0.04570808998592586	0.5426784918899394	0.47684789067353844	-0.03364644300329493	0.5704937236104554	0.7572162842979927	-0.07629369369148728	0.456973648320776	1.0037477127966206	-0.04079969834524054	0.3887249085582719	1.1056399157393113	-0.0831620664511527	0.42051727065124633	1.1367375548147152	-0.10072223675742141	0.4414595159290318	1.1397675365778464
167	3.7954545454545454	0.30284492420751685	0.4695992227457846	0.9626997020713506	0.2884557140608178	0.5196439367563652	1.451707163987251	0.2882918510529858	0.5612057473928878	1.9092084420869062	0.21847640291810977	0.36161821763649477	1.9467865344689477	0.2838578068348647	0.38941898554656107	1.960101215881839	0.2665021791637205	0.6455866526309852	1.9991484960694303	0.07202540101788146	0.5191456265683746	0.9628319751835657	0.08278334775877325	0.5328648815780659	1.4482814421489172	0.061467270123583856	0.5638891819074829	1.8852819061741877	0.06831511262859394	0.3790318775842159	1.946273103961222	0.013016897192764052	0.4270829296811475	1.958177960276349	0.07547305200010228	0.6174212635725989	1.9447627791672901	0.21612594051231454	0.5068275102348274	0.4257437914562779	0.2354088394717183	0.3941522402941814	0.15903620332271046	0.22538487397031426	0.3586950973321201	0.310782295127251	0.3762752287458016	0.48508349831576236	0.5063158771212789	0.4090712942075937	0.4755143514799526	0.7908627150628144	0.3844061310770442	0.37000332792033275	1.0326484267585367	0.30089565452805966	0.3438069226697002	1.1548179567142223	0.32175230126054355	0.3012279963346754	1.1543071401328446	0.37678812926423844	0.37259548684879124	1.176776620248098	0.045676616882945345	0.5428191404095223	0.47775697035067066	-0.03364188923557122	0.5701400265686627	0.7575067951708842	-0.07660312775734116	0.4566148255402849	1.0032363141462182	-0.03894176350437747	0.3790187838312527	1.1031157983815068	-0.07784321931615572	0.4143850640677027	1.134739079775841	-0.09720942113343387	0.4434452063029569	1.1404354755628618
168	3.8181818181818175	0.30394217552002417	0.4661941567548208	0.9634446486160296	0.28848513106935336	0.5197369437110613	1.4518388643272024	0.28829755795623935	0.5602679435791965	1.9100490752552644	0.21862886400867787	0.3621469834442102	1.946839844420068	0.2838883658018144	0.38968523160923096	1.9599750130325047	0.26613704781936426	0.6446489338865578	1.9987945460078977	0.0725167544504576	0.5120833004016218	0.9628178152198855	0.08516430779180206	0.5275887065280901	1.4483227433235601	0.06145790679221716	0.5641112470477859	1.8854378764393303	0.06835553483230032	0.37888454882201683	1.946220881205709	0.013083424429588614	0.4269981368227965	1.958332061503045	0.07390724856924058	0.6146349588674002	1.9433559855127602	0.21591904927283692	0.5028850971994552	0.4238555820539348	0.23541041877572372	0.3941473022159546	0.15905558393636546	0.22385275659041293	0.3547258872393452	0.31034220413353675	0.37626860070431734	0.4849682656125977	0.5063386999780332	0.4091026038641661	0.47543521945737	0.7908753895015356	0.3842861819074602	0.3696705231471643	1.0327191811830134	0.30189611958484386	0.3465517113936885	1.1563800375742772	0.322660746549683	0.29999022485026217	1.1539427107933453	0.38039372364724877	0.37200687779264313	1.1780719937584045	0.0457122608006891	0.5427425950253761	0.47918128465295595	-0.03225808570254584	0.5663973665372971	0.7576760218917935	-0.07632973920686041	0.45712474680307036	1.0035659956725902	-0.03721630970985988	0.36925246025704594	1.0994883288528017	-0.07043967939545166	0.3996125258018184	1.1291022158819706	-0.09264613035376391	0.4452949918573423	1.1412761109712743
169	3.840909090909091	0.3044612201169575	0.45929518364725125	0.9625065273897414	0.2885047447690067	0.5198149245602575	1.451977858937481	0.28836415644477204	0.5596709933568587	1.911095782095979	0.21824962290982053	0.3612023302071069	1.9458745655613914	0.2838934791196367	0.38983457382339015	1.9599085569740873	0.2657246993849228	0.6442345866346004	1.9987045806880062	0.07321515700819418	0.500776343173722	0.9631167672664962	0.08674050651163233	0.5238928290390765	1.4483393898848496	0.06145081829877994	0.5642667846530501	1.8855560824177926	0.0684245543104563	0.3789089494378513	1.9461720032046135	0.013126505331122596	0.42696203500140006	1.958345962583225	0.07312130402831848	0.6136712406732142	1.9411460014557747	0.2158286910630558	0.5000513562162172	0.4225795072658809	0.2354974170022788	0.39415837901009715	0.1590463690080706	0.22284823514232396	0.35232174226120827	0.3100045522381858	0.376250561275079	0.48482559935327	0.5063040948688341	0.409182290455828	0.4753787236655403	0.7908886895574776	0.38445675122142475	0.3689685279495695	1.0334129649196744	0.3037537141125261	0.3505152764601399	1.158948212368878	0.32271553062062014	0.3000431516826057	1.1541134777127542	0.3837630830955761	0.37126914653277243	1.179903953209577	0.04567544453569453	0.5425132079724471	0.4801051456764951	-0.02901188491778546	0.5609941686701094	0.7581214463383098	-0.07278077136041938	0.4571191945189668	1.005092811448979	-0.03442990165182968	0.3633754451215906	1.09693069680001	-0.06115819428931948	0.3803894567578011	1.121619148479071	-0.08734609522453117	0.44610887849207465	1.141939387067904
